<svg id="air-conditioner" xmlns="http://www.w3.org/2000/svg" width="30" height="21" viewBox="0 0 30 21">
  <g id="Grupo_11165" data-name="Grupo 11165">
    <g id="Grupo_11164" data-name="Grupo 11164" transform="translate(0 0)">
      <path id="Caminho_33618" data-name="Caminho 33618" d="M27.5,74.541H.5a1.473,1.473,0,0,0-1.5,1.5v10a1.473,1.473,0,0,0,1.5,1.5h27a1.473,1.473,0,0,0,1.5-1.5v-10A1.473,1.473,0,0,0,27.5,74.541Zm.5,11.5a.472.472,0,0,1-.5.5H.5a.472.472,0,0,1-.5-.5v-10a.5.5,0,0,1,.5-.5h27a.472.472,0,0,1,.5.5v10Z" transform="translate(1 -74.541)" fill="#2e3e91"/>
      <path id="Caminho_33619" data-name="Caminho 33619" d="M209.336,134.3h4a.5.5,0,0,0,0-1h-4a.5.5,0,0,0,0,1Z" transform="translate(-196.336 -129.796)" fill="#2e3e91"/>
      <path id="Caminho_33620" data-name="Caminho 33620" d="M58.074,242.41h-25a.5.5,0,1,0,0,1h25a.5.5,0,1,0,0-1Z" transform="translate(-30.574 -232.41)" fill="#2e3e91"/>
      <path id="Caminho_33621" data-name="Caminho 33621" d="M58.074,208.836h-25a.5.5,0,1,0,0,1h25a.5.5,0,1,0,0-1Z" transform="translate(-30.574 -200.836)" fill="#2e3e91"/>
      <path id="Caminho_33622" data-name="Caminho 33622" d="M227.373,311.784c-.5-.25-.75-.55-.75-.8s.3-.55.7-.85a.478.478,0,0,0,.2-.65.441.441,0,0,0-.65-.2,2.067,2.067,0,0,0-1.25,1.7,2.2,2.2,0,0,0,1.25,1.75c.5.25.75.55.75.8s-.3.55-.75.8a.441.441,0,0,0-.2.65.525.525,0,0,0,.45.25.451.451,0,0,0,.25-.05,2.068,2.068,0,0,0,1.25-1.7A2.006,2.006,0,0,0,227.373,311.784Z" transform="translate(-212.123 -295.234)" fill="#2e3e91"/>
      <path id="Caminho_33623" data-name="Caminho 33623" d="M135.045,328.571c-.5-.25-.75-.55-.75-.8s.3-.55.7-.85a.481.481,0,1,0-.45-.85,2.067,2.067,0,0,0-1.25,1.7,2.2,2.2,0,0,0,1.25,1.75c.5.25.75.55.75.8s-.3.55-.75.8a.441.441,0,0,0-.2.65.525.525,0,0,0,.45.25.451.451,0,0,0,.25-.05,2.067,2.067,0,0,0,1.25-1.7A2.006,2.006,0,0,0,135.045,328.571Z" transform="translate(-125.295 -311.021)" fill="#2e3e91"/>
      <path id="Caminho_33624" data-name="Caminho 33624" d="M319.7,328.571c-.5-.25-.75-.55-.75-.8s.3-.55.7-.85a.478.478,0,0,0,.2-.65.441.441,0,0,0-.65-.2,2.067,2.067,0,0,0-1.25,1.7,2.2,2.2,0,0,0,1.25,1.75c.5.25.75.55.75.8s-.3.55-.75.8a.441.441,0,0,0-.2.65.525.525,0,0,0,.45.25.451.451,0,0,0,.25-.05,2.067,2.067,0,0,0,1.25-1.7A2.006,2.006,0,0,0,319.7,328.571Z" transform="translate(-298.951 -311.021)" fill="#2e3e91"/>
    </g>
  </g>
</svg>
