<svg xmlns="http://www.w3.org/2000/svg" width="20" height="20.005" viewBox="0 0 20 20.005">
  <g id="Grupo_11217" data-name="Grupo 11217" transform="translate(-1162 -1790)">
    <g id="Touch" transform="translate(1162 1790)">
      <g id="touch-2" data-name="touch" transform="translate(0 0)">
        <path id="Path" d="M17.5,7.5a2.45,2.45,0,0,0-1.225.333,2.5,2.5,0,0,0-2.108-1.167A2.45,2.45,0,0,0,12.942,7,2.5,2.5,0,0,0,10,5.983V2.5a2.5,2.5,0,1,0-5,0v7.992l-.558-.567A2.6,2.6,0,0,0,0,11.767,4.617,4.617,0,0,0,1.35,15l2.967,2.958.775,1.55A.833.833,0,0,0,5.833,20a.775.775,0,0,0,.375-.092.833.833,0,0,0,.367-1.117l-.833-1.667a.917.917,0,0,0-.15-.217L2.5,13.85a2.917,2.917,0,0,1-.833-2.083.933.933,0,0,1,1.592-.658l1.983,1.983A.839.839,0,0,0,6.667,12.5V2.5a.833.833,0,1,1,1.667,0v9.167a.833.833,0,0,0,1.667,0V8.333a.833.833,0,1,1,1.667,0v3.333a.833.833,0,0,0,1.667,0v-2.5a.833.833,0,1,1,1.667,0v2.5a.833.833,0,0,0,1.667,0V10a.833.833,0,0,1,1.667,0v5.142a4.825,4.825,0,0,1-1.425,3.433.837.837,0,1,0,1.183,1.183A6.483,6.483,0,0,0,20,15.142V10A2.5,2.5,0,0,0,17.5,7.5Z" transform="translate(0 0)" fill="#fff"/>
        <path id="Path-2" data-name="Path" d="M2.122.119.455.953A.833.833,0,0,0,.83,2.528a.775.775,0,0,0,.375-.092L2.872,1.6A.833.833,0,1,0,2.122.119Z" transform="translate(0.836 5.806)" fill="#fff"/>
        <path id="Path-3" data-name="Path" d="M.4,1.548l1.667.833a.775.775,0,0,0,.375.092A.833.833,0,0,0,2.82.9L1.154.064A.833.833,0,0,0,.4,1.548Z" transform="translate(0.888 0.027)" fill="#fff"/>
        <path id="Path-4" data-name="Path" d="M.833,1.667H2.5A.833.833,0,0,0,2.5,0H.833a.833.833,0,0,0,0,1.667Z" transform="translate(0 3.333)" fill="#fff"/>
        <path id="Path-5" data-name="Path" d="M.83,2.473a.775.775,0,0,0,.375-.092l1.667-.833A.833.833,0,0,0,2.122.064L.455.9A.833.833,0,0,0,.83,2.473Z" transform="translate(10.836 0.027)" fill="#fff"/>
        <path id="Path-6" data-name="Path" d="M0,.833a.833.833,0,0,0,.833.833H2.5A.833.833,0,0,0,2.5,0H.833A.833.833,0,0,0,0,.833Z" transform="translate(11.667 3.333)" fill="#fff"/>
      </g>
    </g>
  </g>
</svg>
