<svg id="Grupo_11178" data-name="Grupo 11178" xmlns="http://www.w3.org/2000/svg" width="30" height="30" viewBox="0 0 30 30">
  <g id="Grupo_11177" data-name="Grupo 11177">
    <path id="Caminho_33657" data-name="Caminho 33657" d="M29.4,6.761c-.012-.107-.027-.214-.043-.321V6.432q-.023-.152-.052-.3L29.3,6.095q-.027-.14-.058-.278c-.005-.024-.011-.048-.017-.073q-.022-.094-.047-.188c-.017-.067-.035-.133-.054-.2L29.1,5.278A8.62,8.62,0,0,0,28.05,3.006l-.03-.045q-.065-.1-.133-.2L27.8,2.641l-.067-.092q-.072-.1-.146-.191l-.058-.073q-.075-.093-.152-.185l-.03-.037-.006-.005a8.668,8.668,0,0,0-5.6-2.993,8.466,8.466,0,0,0-3.7.35,48.662,48.662,0,0,1-14.969,2.6h-.6a3.01,3.01,0,0,0-3,3v6a3.01,3.01,0,0,0,3,3H5.119a41.569,41.569,0,0,1,9.961,1.287L12.228,22.9A4.549,4.549,0,0,0,16.484,29a4.361,4.361,0,0,0,4.155-2.9l3.98-10.5A8.7,8.7,0,0,0,29.4,6.761Zm-.951.15A7.781,7.781,0,0,1,27,12.358a7.781,7.781,0,0,1-1.452-5.447A7.677,7.677,0,0,1,27,3.213,7.488,7.488,0,0,1,28.449,6.911Zm-25.983,6.1a2.007,2.007,0,0,1-2-2v-6a2.007,2.007,0,0,1,2-2h1v9.995Zm15.506,3.083.214.065a8.988,8.988,0,0,0,2.553.35c.095,0,.189,0,.283,0l-1.134,3a1.563,1.563,0,0,1-1.952.9,1.426,1.426,0,0,1-.9-.949,1.529,1.529,0,0,1,.05-1.049Zm1.816,9.61a3.5,3.5,0,0,1-6.558-2.449l2.9-7.688q.445.119.9.248l-.843,2.243a2.518,2.518,0,0,0-.1,1.7,2.3,2.3,0,0,0,1.5,1.6,2.839,2.839,0,0,0,.9.15,2.509,2.509,0,0,0,2.353-1.6l1.344-3.517a8.75,8.75,0,0,0,1.248-.3Zm4.422-11a.467.467,0,0,0-.217.052,7.663,7.663,0,0,1-2.123.659.907.907,0,0,0-.13-.009,7.426,7.426,0,0,1-1,.05,8.175,8.175,0,0,1-2.253-.35,1.548,1.548,0,0,1-.4-.1l-.2-.04A46.114,46.114,0,0,0,5.119,13.008H4.468V2.988A50.708,50.708,0,0,0,18.386.365a7.335,7.335,0,0,1,3.3-.3A7.686,7.686,0,0,1,26.33,2.393a8.659,8.659,0,0,0-1.786,4.368,8.561,8.561,0,0,0,1.809,6.4A8.005,8.005,0,0,1,24.21,14.705Z" transform="translate(0.538 1.001)" fill="#2e3e91"/>
    <path id="Caminho_33658" data-name="Caminho 33658" d="M296.1,135.81H290.1a.5.5,0,1,0,0,1H296.1a.5.5,0,1,0,0-1Z" transform="translate(-272.574 -127.798)" fill="#2e3e91"/>
    <path id="Caminho_33659" data-name="Caminho 33659" d="M311.168,178.477h-4.005a.5.5,0,1,0,0,1h4.005a.5.5,0,1,0,0-1Z" transform="translate(-288.639 -167.966)" fill="#2e3e91"/>
    <path id="Caminho_33660" data-name="Caminho 33660" d="M307.164,94.143h4.005a.5.5,0,1,0,0-1h-4.005a.5.5,0,1,0,0,1Z" transform="translate(-288.64 -87.631)" fill="#2e3e91"/>
  </g>
</svg>
