<svg id="Grupo_11271" data-name="Grupo 11271" xmlns="http://www.w3.org/2000/svg" width="30" height="30" viewBox="0 0 30 30">
  <path id="Caminho_33750" data-name="Caminho 33750" d="M14-1A15,15,0,1,0,29,14,15.044,15.044,0,0,0,14-1Zm0,29A14,14,0,1,1,28,14,14.041,14.041,0,0,1,14,28Z" transform="translate(1 1)" fill="#2e3e91"/>
  <path id="Caminho_33751" data-name="Caminho 33751" d="M199.566,84.333h-2.8a1.473,1.473,0,0,0-1.5,1.5v17.5a1.5,1.5,0,0,0,3,0v-7h1.5a5.976,5.976,0,0,0,6-6.1A6.175,6.175,0,0,0,199.566,84.333Zm3.75,9.5a5,5,0,0,1-3.55,1.5h-2a.472.472,0,0,0-.5.5v7.5a.5.5,0,1,1-1,0v-17.5a.5.5,0,0,1,.5-.5h2.8a4.988,4.988,0,0,1,3.75,8.5Z" transform="translate(-183.766 -79.333)" fill="#2e3e91"/>
  <path id="Caminho_33752" data-name="Caminho 33752" d="M231.9,118.467h-2a.472.472,0,0,0-.5.5v7a.472.472,0,0,0,.5.5h2a4,4,0,1,0,0-8Zm0,7h-1.5v-6h1.5a3,3,0,0,1,0,6Z" transform="translate(-215.901 -111.467)" fill="#2e3e91"/>
</svg>
