<svg id="kitchen" xmlns="http://www.w3.org/2000/svg" width="30" height="30" viewBox="0 0 30 30">
  <path id="Caminho_33805" data-name="Caminho 33805" d="M29.5,96h-9a.5.5,0,0,0-.5.5V108H9v-1.5a.5.5,0,0,0-.5-.5H7v1H8v1H6v-2H5v2H3v-1H4v-1H2.5a.5.5,0,0,0-.5.5V108H.5a.5.5,0,0,0-.5.5v11a.5.5,0,0,0,.5.5h29a.5.5,0,0,0,.5-.5v-23A.5.5,0,0,0,29.5,96ZM21,97h8v6H21Zm-1,14H11v-2h9ZM1,109h9v2H1Zm0,3h9v7H1Zm10,0h4v7H11Zm5,0h4v7H16Zm5,7V104h8v15Zm0,0" transform="translate(0 -90)" fill="#2e3e91"/>
  <path id="Caminho_33806" data-name="Caminho 33806" d="M352,144h1v2h-1Zm0,0" transform="translate(-330 -135)" fill="#2e3e91"/>
  <path id="Caminho_33807" data-name="Caminho 33807" d="M352,256h1v2h-1Zm0,0" transform="translate(-330 -240)" fill="#2e3e91"/>
  <path id="Caminho_33808" data-name="Caminho 33808" d="M33,312.5a.5.5,0,1,1-.5-.5A.5.5,0,0,1,33,312.5Zm0,0" transform="translate(-30 -292.5)" fill="#2e3e91"/>
  <path id="Caminho_33809" data-name="Caminho 33809" d="M65,312.5a.5.5,0,1,1-.5-.5A.5.5,0,0,1,65,312.5Zm0,0" transform="translate(-60 -292.5)" fill="#2e3e91"/>
  <path id="Caminho_33810" data-name="Caminho 33810" d="M97,312.5a.5.5,0,1,1-.5-.5A.5.5,0,0,1,97,312.5Zm0,0" transform="translate(-90 -292.5)" fill="#2e3e91"/>
  <path id="Caminho_33811" data-name="Caminho 33811" d="M129,312.5a.5.5,0,1,1-.5-.5A.5.5,0,0,1,129,312.5Zm0,0" transform="translate(-120 -292.5)" fill="#2e3e91"/>
  <path id="Caminho_33812" data-name="Caminho 33812" d="M.5,9.5h10A.5.5,0,0,0,11,9V7.5a.5.5,0,0,0-.146-.354l-2-2A.5.5,0,0,0,8.5,5H8V.5A.5.5,0,0,0,7.5,0h-4A.5.5,0,0,0,3,.5V5H2.5a.5.5,0,0,0-.354.146l-2,2A.5.5,0,0,0,0,7.5V9A.5.5,0,0,0,.5,9.5ZM4,1H7V5H4ZM1,7.707,2.707,6H8.293L10,7.707V8.5H1Zm0,0" fill="#2e3e91"/>
  <path id="Caminho_33813" data-name="Caminho 33813" d="M38.5,368h-6a.5.5,0,0,0-.5.5v4a.5.5,0,0,0,.5.5h6a.5.5,0,0,0,.5-.5v-4A.5.5,0,0,0,38.5,368Zm-.5,4H33v-3h5Zm0,0" transform="translate(-30 -345)" fill="#2e3e91"/>
  <path id="Caminho_33814" data-name="Caminho 33814" d="M232,312h2v1h-2Zm0,0" transform="translate(-217.5 -292.5)" fill="#2e3e91"/>
  <path id="Caminho_33815" data-name="Caminho 33815" d="M208,392h1v2h-1Zm0,0" transform="translate(-195 -367.5)" fill="#2e3e91"/>
  <path id="Caminho_33816" data-name="Caminho 33816" d="M272,392h1v2h-1Zm0,0" transform="translate(-255 -367.5)" fill="#2e3e91"/>
  <path id="Caminho_33817" data-name="Caminho 33817" d="M184.5,12.5h3a.5.5,0,0,0,.5-.5v-.5a2,2,0,0,0-1.5-1.929V0h-1V9.571A2,2,0,0,0,184,11.5V12A.5.5,0,0,0,184.5,12.5Zm1.5-2a1,1,0,0,1,1,1h-2A1,1,0,0,1,186,10.5Zm0,0" transform="translate(-172.5)" fill="#2e3e91"/>
  <path id="Caminho_33818" data-name="Caminho 33818" d="M240.5,8.5h3A.5.5,0,0,0,244,8V7.5a2,2,0,0,0-1.5-1.929V0h-1V5.571A2,2,0,0,0,240,7.5V8A.5.5,0,0,0,240.5,8.5Zm1.5-2a1,1,0,0,1,1,1h-2A1,1,0,0,1,242,6.5Zm0,0" transform="translate(-225)" fill="#2e3e91"/>
</svg>
