<svg id="Grupo_11276" data-name="Grupo 11276" xmlns="http://www.w3.org/2000/svg" width="30" height="26" viewBox="0 0 30 26">
  <g id="Grupo_11275" data-name="Grupo 11275" transform="translate(0 0)">
    <path id="Caminho_33759" data-name="Caminho 33759" d="M241.662,36.79h-2.5a2.015,2.015,0,0,0-1.936,1.529h-2.114a5.486,5.486,0,0,0-4.25,1.784L229.2,41.8a2.337,2.337,0,0,0-2.239.6l-1.15,1.173a.5.5,0,0,0,0,.714l4.5,4.588a.45.45,0,0,0,.35.153.657.657,0,0,0,.4-.153l1.15-1.173a2.374,2.374,0,0,0,.65-1.835,2.774,2.774,0,0,0-.1-.559l1.6-1.633c.3-.255.3-.255.75-.255h2.114a2.015,2.015,0,0,0,1.936,1.529h2.5a.477.477,0,0,0,.5-.51V37.3A.477.477,0,0,0,241.662,36.79Zm-10.2,10.2-.8.816-3.8-3.874.75-.816a1.311,1.311,0,0,1,1.333-.356.49.49,0,0,0,.167.1,1.693,1.693,0,0,1,.7.459l1.45,1.478a1.554,1.554,0,0,1,.45.663.375.375,0,0,0,.06.111,1.514,1.514,0,0,1,.04.348A1.332,1.332,0,0,1,231.463,46.986Zm2.3-4.027-1.429,1.457a3.06,3.06,0,0,0-.321-.387l-1.45-1.478a3.028,3.028,0,0,0-.387-.318l1.487-1.415a4.418,4.418,0,0,1,3.55-1.478h1.95V42.4h-1.95A1.529,1.529,0,0,0,233.763,42.959Zm7.4.969h-2a1.013,1.013,0,0,1-1-1.02V38.829a1.013,1.013,0,0,1,1-1.02h2Z" transform="translate(-212.162 -36.79)" fill="#2e3e91"/>
    <path id="Caminho_33760" data-name="Caminho 33760" d="M232.878,205.651l-.35.357a.5.5,0,0,0,0,.714.477.477,0,0,0,.7,0l.35-.357a.5.5,0,0,0,0-.714A.477.477,0,0,0,232.878,205.651Z" transform="translate(-218.477 -195.251)" fill="#2e3e91"/>
    <path id="Caminho_33761" data-name="Caminho 33761" d="M167.709,266.923l-.65.663a.5.5,0,0,0,0,.714.477.477,0,0,0,.7,0l.65-.663a.5.5,0,0,0,0-.714A.477.477,0,0,0,167.709,266.923Z" transform="translate(-156.908 -252.802)" fill="#2e3e91"/>
    <path id="Caminho_33762" data-name="Caminho 33762" d="M201.143,234.189a.477.477,0,0,0-.7,0l-.65.663a.5.5,0,0,0,0,.714.477.477,0,0,0,.7,0l.65-.663A.5.5,0,0,0,201.143,234.189Z" transform="translate(-187.692 -222.056)" fill="#2e3e91"/>
    <path id="Caminho_33763" data-name="Caminho 33763" d="M70.206,366.806a.477.477,0,0,0-.7,0l-.65.663a.5.5,0,0,0,0,.714.477.477,0,0,0,.7,0l.65-.663A.5.5,0,0,0,70.206,366.806Z" transform="translate(-64.554 -346.618)" fill="#2e3e91"/>
    <path id="Caminho_33764" data-name="Caminho 33764" d="M102.24,334.071l-.65.663a.5.5,0,0,0,0,.714.477.477,0,0,0,.7,0l.65-.663a.5.5,0,0,0,0-.714A.477.477,0,0,0,102.24,334.071Z" transform="translate(-95.338 -315.871)" fill="#2e3e91"/>
    <path id="Caminho_33765" data-name="Caminho 33765" d="M135.024,301.875l.65-.663a.5.5,0,0,0,0-.714.477.477,0,0,0-.7,0l-.65.663a.5.5,0,0,0,0,.714.477.477,0,0,0,.7,0Z" transform="translate(-126.122 -284.337)" fill="#2e3e91"/>
    <path id="Caminho_33766" data-name="Caminho 33766" d="M41.507,400.379l-.35.357a.5.5,0,0,0,0,.714.477.477,0,0,0,.7,0l.35-.357a.5.5,0,0,0,0-.714A.477.477,0,0,0,41.507,400.379Z" transform="translate(-38.505 -378.152)" fill="#2e3e91"/>
    <path id="Caminho_33767" data-name="Caminho 33767" d="M276.486,239.376a.53.53,0,0,0-.7.1l-.3.408a.556.556,0,0,0,.1.714.7.7,0,0,0,.3.1.452.452,0,0,0,.4-.2l.3-.408A.556.556,0,0,0,276.486,239.376Z" transform="translate(-258.935 -226.988)" fill="#2e3e91"/>
    <path id="Caminho_33768" data-name="Caminho 33768" d="M225.486,303.166a.53.53,0,0,0-.7.1l-.5.714a.556.556,0,0,0,.1.714.7.7,0,0,0,.3.1.452.452,0,0,0,.4-.2l.5-.714A.556.556,0,0,0,225.486,303.166Z" transform="translate(-210.785 -286.903)" fill="#2e3e91"/>
    <path id="Caminho_33769" data-name="Caminho 33769" d="M251.506,268.753a.53.53,0,0,0-.7.1l-.5.714a.556.556,0,0,0,.1.714.7.7,0,0,0,.3.1.452.452,0,0,0,.4-.2l.5-.714A.556.556,0,0,0,251.506,268.753Z" transform="translate(-235.255 -254.58)" fill="#2e3e91"/>
    <path id="Caminho_33770" data-name="Caminho 33770" d="M174.286,371.992a.53.53,0,0,0-.7.1l-.5.714a.556.556,0,0,0,.1.714.7.7,0,0,0,.3.1.452.452,0,0,0,.4-.2l.5-.714A.556.556,0,0,0,174.286,371.992Z" transform="translate(-162.634 -351.549)" fill="#2e3e91"/>
    <path id="Caminho_33771" data-name="Caminho 33771" d="M148.266,407.245a.53.53,0,0,0-.7.1l-.5.714a.556.556,0,0,0,.1.714.7.7,0,0,0,.3.1.613.613,0,0,0,.4-.2l.5-.714A.556.556,0,0,0,148.266,407.245Z" transform="translate(-138.164 -384.661)" fill="#2e3e91"/>
    <path id="Caminho_33772" data-name="Caminho 33772" d="M199.466,337.579a.53.53,0,0,0-.7.1l-.5.714a.556.556,0,0,0,.1.714.7.7,0,0,0,.3.1c.2,0,.35-.051.4-.2l.5-.714A.556.556,0,0,0,199.466,337.579Z" transform="translate(-186.315 -319.226)" fill="#2e3e91"/>
    <path id="Caminho_33773" data-name="Caminho 33773" d="M126.243,441.658a.53.53,0,0,0-.7.1l-.3.408a.556.556,0,0,0,.1.714.7.7,0,0,0,.3.1.452.452,0,0,0,.4-.2l.3-.408A.556.556,0,0,0,126.243,441.658Z" transform="translate(-117.641 -416.983)" fill="#2e3e91"/>
    <path id="Caminho_33774" data-name="Caminho 33774" d="M198.427,173.213a.7.7,0,0,0,.3-.1l.4-.306a.505.505,0,0,0,.1-.714.483.483,0,0,0-.7-.1l-.4.306a.505.505,0,0,0-.1.714A.452.452,0,0,0,198.427,173.213Z" transform="translate(-186.075 -163.679)" fill="#2e3e91"/>
    <path id="Caminho_33775" data-name="Caminho 33775" d="M130.44,222.1c.1,0,.25,0,.3-.1l.65-.51a.5.5,0,0,0,.1-.714.483.483,0,0,0-.7-.1l-.65.51a.505.505,0,0,0-.1.714A.452.452,0,0,0,130.44,222.1Z" transform="translate(-122.138 -209.404)" fill="#2e3e91"/>
    <path id="Caminho_33776" data-name="Caminho 33776" d="M164.853,196.078a.363.363,0,0,0,.3-.1l.65-.51a.5.5,0,0,0,.1-.714.483.483,0,0,0-.7-.1l-.65.51a.505.505,0,0,0-.1.714A.452.452,0,0,0,164.853,196.078Z" transform="translate(-154.501 -184.965)" fill="#2e3e91"/>
    <path id="Caminho_33777" data-name="Caminho 33777" d="M28.879,301a.7.7,0,0,0,.3-.1l.65-.51a.5.5,0,0,0,.1-.714.483.483,0,0,0-.7-.1l-.65.51a.5.5,0,0,0-.1.714A.452.452,0,0,0,28.879,301Z" transform="translate(-26.627 -283.51)" fill="#2e3e91"/>
    <path id="Caminho_33778" data-name="Caminho 33778" d="M62.453,274.977a.418.418,0,0,0,.3-.1l.65-.51a.5.5,0,0,0,.1-.714.483.483,0,0,0-.7-.1l-.65.51a.5.5,0,0,0-.1.714A.452.452,0,0,0,62.453,274.977Z" transform="translate(-58.201 -259.072)" fill="#2e3e91"/>
    <path id="Caminho_33779" data-name="Caminho 33779" d="M96.866,248.957a.7.7,0,0,0,.3-.1l.65-.51a.505.505,0,0,0,.1-.714.483.483,0,0,0-.7-.1l-.65.51a.505.505,0,0,0-.1.714A.452.452,0,0,0,96.866,248.957Z" transform="translate(-90.564 -234.632)" fill="#2e3e91"/>
    <path id="Caminho_33780" data-name="Caminho 33780" d="M.3,325.691a.483.483,0,0,0-.7-.1l-.4.306a.505.505,0,0,0-.1.714.452.452,0,0,0,.4.2.7.7,0,0,0,.3-.1l.4-.306A.5.5,0,0,0,.3,325.691Z" transform="translate(1 -307.95)" fill="#2e3e91"/>
    <path id="Caminho_33781" data-name="Caminho 33781" d="M250.562,223.968a.7.7,0,0,0,.3.1c.15,0,.25-.1.4-.153l.3-.408a.5.5,0,0,0-.05-.714.48.48,0,0,0-.7.051l-.3.408A.5.5,0,0,0,250.562,223.968Z" transform="translate(-235.41 -211.376)" fill="#2e3e91"/>
    <path id="Caminho_33782" data-name="Caminho 33782" d="M193.787,288.166a.561.561,0,0,0,.4-.153l.55-.714a.5.5,0,0,0-.05-.714.48.48,0,0,0-.7.051l-.55.714a.5.5,0,0,0,.05.714A.7.7,0,0,0,193.787,288.166Z" transform="translate(-181.736 -271.292)" fill="#2e3e91"/>
    <path id="Caminho_33783" data-name="Caminho 33783" d="M222.324,253.753a.561.561,0,0,0,.4-.153l.55-.714a.5.5,0,0,0-.05-.714.48.48,0,0,0-.7.051l-.55.714a.5.5,0,0,0,.05.714A.7.7,0,0,0,222.324,253.753Z" transform="translate(-208.573 -238.968)" fill="#2e3e91"/>
    <path id="Caminho_33784" data-name="Caminho 33784" d="M166.2,321.713a.5.5,0,0,0-.05-.714.48.48,0,0,0-.7.051l-.55.714a.5.5,0,0,0,.05.714.7.7,0,0,0,.3.1.561.561,0,0,0,.4-.153Z" transform="translate(-154.897 -303.615)" fill="#2e3e91"/>
    <path id="Caminho_33785" data-name="Caminho 33785" d="M109.073,390.665a.48.48,0,0,0-.7.051l-.55.714a.5.5,0,0,0,.05.714.7.7,0,0,0,.3.1.561.561,0,0,0,.4-.153l.55-.714A.5.5,0,0,0,109.073,390.665Z" transform="translate(-101.221 -369.049)" fill="#2e3e91"/>
    <path id="Caminho_33786" data-name="Caminho 33786" d="M136.711,357.833a.613.613,0,0,0,.4-.2l.55-.663a.5.5,0,0,0-.05-.714.48.48,0,0,0-.7.051l-.55.714a.5.5,0,0,0,.05.714A.7.7,0,0,0,136.711,357.833Z" transform="translate(-128.059 -336.727)" fill="#2e3e91"/>
    <path id="Caminho_33787" data-name="Caminho 33787" d="M83.782,425.129l-.3.408a.5.5,0,0,0,.05.714.7.7,0,0,0,.3.1.561.561,0,0,0,.4-.153l.3-.408a.5.5,0,0,0-.05-.714A.48.48,0,0,0,83.782,425.129Z" transform="translate(-78.33 -401.372)" fill="#2e3e91"/>
    <path id="Caminho_33788" data-name="Caminho 33788" d="M216.5,189.222l-.35.357a.5.5,0,0,0-.05.714.45.45,0,0,0,.35.153,1.251,1.251,0,0,0,.35-.1l.35-.357a.5.5,0,0,0,.05-.714A.479.479,0,0,0,216.5,189.222Z" transform="translate(-203.047 -179.842)" fill="#2e3e91"/>
    <path id="Caminho_33789" data-name="Caminho 33789" d="M147.272,246.784a.45.45,0,0,0,.35.153.712.712,0,0,0,.35-.1l.7-.612a.5.5,0,0,0,.05-.714.48.48,0,0,0-.7-.051l-.7.612A.5.5,0,0,0,147.272,246.784Z" transform="translate(-138.32 -232.662)" fill="#2e3e91"/>
    <path id="Caminho_33790" data-name="Caminho 33790" d="M181.685,216.566a.45.45,0,0,0,.35.153.912.912,0,0,0,.35-.1l.7-.612a.5.5,0,0,0,.05-.714.48.48,0,0,0-.7-.051l-.7.612A.5.5,0,0,0,181.685,216.566Z" transform="translate(-170.684 -204.28)" fill="#2e3e91"/>
    <path id="Caminho_33791" data-name="Caminho 33791" d="M45.712,338.272a.45.45,0,0,0,.35.153.378.378,0,0,0,.25-.1l.7-.612a.5.5,0,0,0,.05-.714.48.48,0,0,0-.7-.051l-.6.612A.5.5,0,0,0,45.712,338.272Z" transform="translate(-42.81 -318.593)" fill="#2e3e91"/>
    <path id="Caminho_33792" data-name="Caminho 33792" d="M113.7,277.839a.45.45,0,0,0,.35.153.913.913,0,0,0,.35-.1l.7-.612a.5.5,0,0,0,.05-.714.48.48,0,0,0-.7-.051l-.7.612A.5.5,0,0,0,113.7,277.839Z" transform="translate(-106.747 -261.831)" fill="#2e3e91"/>
    <path id="Caminho_33793" data-name="Caminho 33793" d="M79.285,308.055a.477.477,0,0,0,.7,0l.7-.561a.5.5,0,0,0,.05-.714.48.48,0,0,0-.7-.051l-.7.612A.5.5,0,0,0,79.285,308.055Z" transform="translate(-74.383 -290.212)" fill="#2e3e91"/>
    <path id="Caminho_33794" data-name="Caminho 33794" d="M16.735,367.163l-.35.357a.5.5,0,0,0-.05.714.45.45,0,0,0,.35.153.912.912,0,0,0,.35-.1l.35-.357a.5.5,0,0,0,.05-.714A.48.48,0,0,0,16.735,367.163Z" transform="translate(-15.182 -346.975)" fill="#2e3e91"/>
  </g>
</svg>
