<svg id="Grupo_11179" data-name="Grupo 11179" xmlns="http://www.w3.org/2000/svg" width="30" height="30" viewBox="0 0 30 30">
  <path id="Caminho_33661" data-name="Caminho 33661" d="M28.381,17.283,15.6,8.383a2.791,2.791,0,0,0-1.1-.444V6.348a3.473,3.473,0,0,0,3-3.465,3.495,3.495,0,1,0-6.99,0,.5.5,0,1,0,1,0,2.5,2.5,0,1,1,4.993,0,2.474,2.474,0,0,1-2.5,2.5.472.472,0,0,0-.5.5V7.939a2.79,2.79,0,0,0-1.1.444l-12.781,8.9a1.378,1.378,0,0,0-.549,1.6,1.393,1.393,0,0,0,1.348,1H4.018v8a1.472,1.472,0,0,0,1.5,1.5H19.495a1.472,1.472,0,0,0,1.5-1.5v-.5h2.5a1.461,1.461,0,0,0,1.5-1.45v-6.05h2.6a1.439,1.439,0,0,0,1.348-1A1.424,1.424,0,0,0,28.381,17.283ZM21,18.883a1.623,1.623,0,0,1,.795-1.335,1.524,1.524,0,0,1,.634-.163,1.572,1.572,0,0,1,1.065.4,1.516,1.516,0,0,1,.5,1.1Zm-1,0v5.5H5.016v-5.5a1.472,1.472,0,0,1,1.5-1.5H20.493A2.573,2.573,0,0,0,19.994,18.883Zm0,9a.472.472,0,0,1-.5.5H5.516a.472.472,0,0,1-.5-.5v-2.5H19.994v2.5Zm3.495-1.5h-2.5v-6.5h3v6A.472.472,0,0,1,23.489,26.383Zm4.493-7.8a.393.393,0,0,1-.4.3h-2.6a2.474,2.474,0,0,0-2.5-2.5H6.514a2.474,2.474,0,0,0-2.5,2.5H.423a.39.39,0,0,1-.4-.3.435.435,0,0,1,.2-.45l12.731-8.95a1.625,1.625,0,0,1,.909-.316.6.6,0,0,0,.14.016.611.611,0,0,0,.115-.011A1.92,1.92,0,0,1,15,9.183l12.831,8.95A.478.478,0,0,1,27.982,18.583Z" transform="translate(1.001 0.617)" fill="#2e3e91"/>
</svg>
