<svg id="Grupo_11274" data-name="Grupo 11274" xmlns="http://www.w3.org/2000/svg" width="30" height="24.917" viewBox="0 0 30 24.917">
  <g id="Grupo_11273" data-name="Grupo 11273" transform="translate(0 0)">
    <path id="Caminho_33753" data-name="Caminho 33753" d="M158.7,169.684a6.1,6.1,0,1,0,6.1,6.1A6.187,6.187,0,0,0,158.7,169.684Zm0,11.186a5.085,5.085,0,1,1,5.085-5.085A5.167,5.167,0,0,1,158.7,180.87Z" transform="translate(-143.447 -162.055)" fill="#2e3e91"/>
    <path id="Caminho_33754" data-name="Caminho 33754" d="M437.251,53.621V42.16a.489.489,0,0,0-.305-.458.464.464,0,0,0-.559.1,7.423,7.423,0,0,0-2.186,5.288v3.051a7.553,7.553,0,0,0,.763,3.356l.115.211a2.035,2.035,0,0,0-.878,1.67v9.153a2.034,2.034,0,1,0,4.068,0V55.38A2.038,2.038,0,0,0,437.251,53.621Zm-1.22-.275-.153-.305a7.105,7.105,0,0,1-.661-2.9v-3.1a6.391,6.391,0,0,1,1.017-3.458v9.763Zm1.22,11.186a1.017,1.017,0,1,1-2.034,0V55.38a1.017,1.017,0,1,1,2.034,0Z" transform="translate(-408.268 -41.649)" fill="#2e3e91"/>
    <path id="Caminho_33755" data-name="Caminho 33755" d="M3.576,50.217a.48.48,0,0,0-.508.508v5.593a1.493,1.493,0,0,1-1.017,1.443V50.726a.48.48,0,0,0-.508-.508.48.48,0,0,0-.508.508v7.037A1.493,1.493,0,0,1,.017,56.319V50.726a.48.48,0,0,0-.508-.508A.48.48,0,0,0-1,50.726v5.593a2.513,2.513,0,0,0,2.034,2.493v2.656A2.042,2.042,0,0,0-.492,63.437V72.59a2.034,2.034,0,1,0,4.068,0V63.437a2.042,2.042,0,0,0-1.525-1.969V58.812a2.513,2.513,0,0,0,2.034-2.493V50.726A.48.48,0,0,0,3.576,50.217ZM2.559,63.437V72.59a1.017,1.017,0,1,1-2.034,0V63.437a1.017,1.017,0,1,1,2.034,0Z" transform="translate(1 -49.706)" fill="#2e3e91"/>
    <path id="Caminho_33756" data-name="Caminho 33756" d="M33.133,298.193a.508.508,0,1,0,.508-.508A.48.48,0,0,0,33.133,298.193Z" transform="translate(-31.099 -282.428)" fill="#2e3e91"/>
    <path id="Caminho_33757" data-name="Caminho 33757" d="M460.308,297.684a.508.508,0,1,0,.508.508A.48.48,0,0,0,460.308,297.684Z" transform="translate(-432.342 -282.428)" fill="#2e3e91"/>
    <path id="Caminho_33758" data-name="Caminho 33758" d="M102.528,109.951a9.661,9.661,0,1,0,9.661,9.661A9.657,9.657,0,0,0,102.528,109.951Zm0,18.305a8.644,8.644,0,1,1,8.644-8.644A8.637,8.637,0,0,1,102.528,128.256Z" transform="translate(-87.274 -105.881)" fill="#2e3e91"/>
  </g>
</svg>
