<svg id="Grupo_11181" data-name="Grupo 11181" xmlns="http://www.w3.org/2000/svg" width="30" height="20.5" viewBox="0 0 30 20.5">
  <g id="Grupo_11180" data-name="Grupo 11180" transform="translate(0 0)">
    <path id="Caminho_33662" data-name="Caminho 33662" d="M28.5,95.738H27v-15.5a1.473,1.473,0,0,0-1.5-1.5H2.5a1.473,1.473,0,0,0-1.5,1.5v15.5H-.5a.472.472,0,0,0-.5.5v1.5a1.473,1.473,0,0,0,1.5,1.5h27a1.473,1.473,0,0,0,1.5-1.5v-1.5A.472.472,0,0,0,28.5,95.738ZM2,80.238a.5.5,0,0,1,.5-.5h23a.472.472,0,0,1,.5.5v15.5H18a.472.472,0,0,0-.5.5v.5h-7v-.5a.472.472,0,0,0-.5-.5H2Zm26,17.5a.472.472,0,0,1-.5.5H.5a.472.472,0,0,1-.5-.5v-1H9.5v.5a.472.472,0,0,0,.5.5h8a.472.472,0,0,0,.5-.5v-.5H28v1Z" transform="translate(1 -78.738)" fill="#2e3e91"/>
    <path id="Caminho_33663" data-name="Caminho 33663" d="M148.663,141.386a.454.454,0,0,0,.35.15.665.665,0,0,0,.4-.15.483.483,0,0,0,0-.7,9.536,9.536,0,0,0-13.45,0,.495.495,0,1,0,.7.7A8.51,8.51,0,0,1,148.663,141.386Z" transform="translate(-127.663 -134.386)" fill="#2e3e91"/>
    <path id="Caminho_33664" data-name="Caminho 33664" d="M174.54,182.209a.483.483,0,0,0,.7,0,.483.483,0,0,0,0-.7,7,7,0,0,0-9.9,0,.495.495,0,0,0,.7.7,5.934,5.934,0,0,1,4.25-1.75A6.148,6.148,0,0,1,174.54,182.209Z" transform="translate(-155.29 -173.459)" fill="#2e3e91"/>
    <path id="Caminho_33665" data-name="Caminho 33665" d="M195.557,222.529a.495.495,0,0,0,.7.7,3.531,3.531,0,0,1,4.95,0,.454.454,0,0,0,.35.15.54.54,0,0,0,.35-.15.483.483,0,0,0,0-.7A4.5,4.5,0,0,0,195.557,222.529Z" transform="translate(-183.707 -212.729)" fill="#2e3e91"/>
    <path id="Caminho_33666" data-name="Caminho 33666" d="M219.229,263.393a2,2,0,1,0,2,2A2.006,2.006,0,0,0,219.229,263.393Zm0,3a1,1,0,1,1,1-1A1,1,0,0,1,219.229,266.393Z" transform="translate(-204.229 -252.393)" fill="#2e3e91"/>
  </g>
</svg>
