<svg xmlns="http://www.w3.org/2000/svg" width="21.808" height="30" viewBox="0 0 21.808 30">
  <path id="XMLID_94_" d="M70.878,8.628a.57.57,0,0,1,.57-.57h.681a.57.57,0,1,1,0,1.14h-.681A.57.57,0,0,1,70.878,8.628Zm-2.512.57h.682a.57.57,0,0,0,0-1.14h-.682a.57.57,0,1,0,0,1.14Zm10.9-3.731V28.761A1.24,1.24,0,0,1,78.032,30H58.7a1.24,1.24,0,0,1-1.239-1.239V5.467A1.24,1.24,0,0,1,58.7,4.229h.291a1.627,1.627,0,0,1,.317-1.544A1.627,1.627,0,0,1,60.545,0H64.97a1.628,1.628,0,0,1,1.553,2.114h2.037a1.628,1.628,0,0,1,1.553,2.114h7.919A1.24,1.24,0,0,1,79.27,5.467ZM60.058,1.627a.487.487,0,0,0,.487.487H64.97a.487.487,0,0,0,0-.974H60.545A.487.487,0,0,0,60.058,1.627Zm0,2.114a.487.487,0,0,0,.487.487h8.015a.487.487,0,0,0,0-.974H60.545A.487.487,0,0,0,60.058,3.741ZM78.13,5.467a.1.1,0,0,0-.1-.1H58.7a.1.1,0,0,0-.1.1V28.761a.1.1,0,0,0,.1.1H78.032a.1.1,0,0,0,.1-.1V5.467Zm-2.917,2.59h-.682a.57.57,0,0,0,0,1.14h.682a.57.57,0,1,0,0-1.14Zm-6.846,5.755a.57.57,0,1,0,0,1.14,4.231,4.231,0,0,1,4.207,4.207.57.57,0,1,0,1.14,0,5.371,5.371,0,0,0-5.347-5.347ZM61.52,9.2h3.423a.57.57,0,0,0,0-1.14H61.52a.57.57,0,0,0,0,1.14ZM75.783,19.16a7.417,7.417,0,1,1-7.417-7.417A7.425,7.425,0,0,1,75.783,19.16Zm-1.14,0a6.276,6.276,0,1,0-6.276,6.276A6.283,6.283,0,0,0,74.642,19.16Zm-6.276,4.207a4.277,4.277,0,0,1-3.036-1.274,4.033,4.033,0,0,1-1.171-2.921.57.57,0,0,0-1.14-.022,5.165,5.165,0,0,0,1.5,3.742,5.424,5.424,0,0,0,3.85,1.616.57.57,0,1,0,0-1.141Z" transform="translate(-57.462)" fill="#2e3e91"/>
</svg>
