<svg xmlns="http://www.w3.org/2000/svg" width="30" height="27" viewBox="0 0 30 27">
  <path id="XMLID_169_" d="M5.553,36.34a.609.609,0,0,1,.61-.607h.151a.607.607,0,1,1,0,1.214H6.164A.609.609,0,0,1,5.553,36.34Zm.61-1.524h.151a.607.607,0,1,0,0-1.214H6.164a.607.607,0,1,0,0,1.214Zm-1.757,0h.151a.607.607,0,1,0,0-1.214H4.407a.607.607,0,1,0,0,1.214Zm1.757-2.17h.151a.607.607,0,1,0,0-1.214H6.164a.607.607,0,1,0,0,1.214Zm-.52,7.09h-.55v-.547a.61.61,0,0,0-1.22,0v.547h-.55a.607.607,0,1,0,0,1.214h.55V41.5a.61.61,0,0,0,1.22,0v-.547h.55a.607.607,0,1,0,0-1.214ZM4.407,36.947h.151a.607.607,0,1,0,0-1.214H4.407a.607.607,0,1,0,0,1.214ZM30,19.374V36.786a.609.609,0,0,1-.61.607H16.711v2.121h3.923a.607.607,0,1,1,0,1.214H11.568a.607.607,0,1,1,0-1.214h3.923V37.393h-5.2a.607.607,0,1,1,0-1.214H28.78V34.668H10.94a.607.607,0,1,1,0-1.214H28.78V22.706H3.422v1.262a.61.61,0,0,1-1.22,0V19.374a.609.609,0,0,1,.61-.607H29.39A.609.609,0,0,1,30,19.374Zm-1.22.607H3.422v1.51H28.78ZM2.651,36.947H2.8a.607.607,0,1,0,0-1.214H2.651a.607.607,0,1,0,0,1.214ZM3.8,32.04a.609.609,0,0,0,.61.607h.151a.607.607,0,1,0,0-1.214H4.407A.609.609,0,0,0,3.8,32.04ZM2.651,34.817H2.8a.607.607,0,1,0,0-1.214H2.651a.607.607,0,1,0,0,1.214Zm6.315-8.922V45.16a.609.609,0,0,1-.61.607H.61A.609.609,0,0,1,0,45.16V25.894a.609.609,0,0,1,.61-.607H8.355A.609.609,0,0,1,8.966,25.894Zm-1.22.607H1.22V44.553H7.745ZM2.651,32.647H2.8a.607.607,0,1,0,0-1.214H2.651a.607.607,0,1,0,0,1.214Zm0-3.933h.756a.607.607,0,1,0,0-1.214H2.651a.607.607,0,1,0,0,1.214Z" transform="translate(0 -18.767)" fill="#2e3e91"/>
</svg>
