<svg xmlns="http://www.w3.org/2000/svg" width="30" height="20" viewBox="0 0 30 20">
  <path id="Caminho_33690" data-name="Caminho 33690" d="M26.022,5.932l6.509,8.811h0a1.649,1.649,0,0,1,0,2.353h0l-6.509,8.071a1.677,1.677,0,0,1-2.252.16,1.649,1.649,0,0,1-.351-2.215l4.506-5.469H4.693a1.657,1.657,0,1,1,0-3.314H27.924l-4.506-5.6a1.649,1.649,0,0,1-.356-1.7,1.667,1.667,0,0,1,1.37-1.081C25.058,5.869,25.673,5.411,26.022,5.932Z" transform="translate(-3.024 -5.686)" fill="#d2d2dc" fill-rule="evenodd"/>
</svg>
