<svg xmlns="http://www.w3.org/2000/svg" width="30" height="20" viewBox="0 0 30 20">
  <path id="Caminho_593" data-name="Caminho 593" d="M10.027,5.932,3.518,14.742h0a1.649,1.649,0,0,0,0,2.353h0l6.509,8.071a1.677,1.677,0,0,0,2.252.16,1.649,1.649,0,0,0,.351-2.215L8.124,17.643H31.355a1.657,1.657,0,1,0,0-3.314H8.124l4.506-5.6a1.649,1.649,0,0,0,.356-1.7,1.667,1.667,0,0,0-1.37-1.081C10.99,5.869,10.375,5.411,10.027,5.932Z" transform="translate(-3.024 -5.686)" fill="#d2d2dc" fill-rule="evenodd"/>
</svg>
