<svg xmlns="http://www.w3.org/2000/svg" width="19.999" height="20" viewBox="0 0 19.999 20">
  <g id="Edit_Alt_2" data-name="Edit / Alt 2" transform="translate(0 3)">
    <g id="edit-alt-2" transform="translate(0 -3)">
      <path id="Shape" d="M4.172,20H.833A.834.834,0,0,1,0,19.167V15.834a.839.839,0,0,1,.241-.592L14.549.935a3.193,3.193,0,0,1,4.516,4.516L4.758,19.759A.836.836,0,0,1,4.172,20ZM16.8,1.669a1.491,1.491,0,0,0-1.064.45L1.666,16.175v2.158H3.825L17.881,4.269a1.516,1.516,0,0,0-1.062-2.6H16.8Z" transform="translate(0 0)" fill="#fff"/>
      <path id="Path" d="M3.753,4.586a.833.833,0,0,1-.592-.242L.245,1.428A.837.837,0,0,1,1.428.245L4.345,3.161a.833.833,0,0,1-.592,1.425Z" transform="translate(13.329 2.499)" fill="#fff"/>
    </g>
  </g>
</svg>
