<svg xmlns="http://www.w3.org/2000/svg" width="56.047" height="60" viewBox="0 0 56.047 60">
  <g id="house-3" transform="translate(-15.875 1)">
    <g id="Grupo_11226" data-name="Grupo 11226" transform="translate(15.875 -1)">
      <g id="Grupo_11225" data-name="Grupo 11225" transform="translate(0)">
        <path id="Caminho_33704" data-name="Caminho 33704" d="M71.187,21.116,48.2.724a6.219,6.219,0,0,0-8.6,0l-7.7,7v-2.7h1a.944.944,0,0,0,1-1v-4a.944.944,0,0,0-1-1H20.908a.944.944,0,0,0-1,1v4a.944.944,0,0,0,1,1h1v11.5l-5.3,4.6a2.4,2.4,0,0,0-.6,2.5,2.313,2.313,0,0,0,2.1,1.4h3.8V53h-1a.944.944,0,0,0-1,1v4a.944.944,0,0,0,1,1H66.889a.975.975,0,0,0,1-1.1v-4a.944.944,0,0,0-1-1h-1V24.914h3.8a2.079,2.079,0,0,0,2.1-1.4A2.192,2.192,0,0,0,71.187,21.116Zm-1.3,1.8a.31.31,0,0,1-.2.1h-4.8a.944.944,0,0,0-1,1V54a.944.944,0,0,0,1,1h1v2H21.907V55h1a.944.944,0,0,0,1-1V24.014a.944.944,0,0,0-1-1h-4.8c-.1,0-.1,0-.2-.1a.367.367,0,0,1,.1-.3l5.6-4.8a1.135,1.135,0,0,0,.3-.8V4.023a.944.944,0,0,0-1-1h-1v-2h10v2h-1a.944.944,0,0,0-1,1v6a1.381,1.381,0,0,0,.6,1.1,1.089,1.089,0,0,0,1.1-.2l9.4-8.6a4.1,4.1,0,0,1,5.8,0L69.788,22.715C69.888,22.715,69.988,22.815,69.888,22.915Z" transform="translate(-15.875 1)" fill="#69a4d9"/>
        <path id="Caminho_33705" data-name="Caminho 33705" d="M160.629,143.77H144.635v-5a5.005,5.005,0,0,1,1.7-3.8,4.833,4.833,0,0,1,4-1.2,5.274,5.274,0,0,1,4.3,5.2,2.86,2.86,0,0,0,2.8,2.8h.2a2.945,2.945,0,0,0,3-3,11,11,0,1,0-21.991.4v4.6a3.007,3.007,0,0,0-3,3v13.994a3.007,3.007,0,0,0,3,3h21.991a2.945,2.945,0,0,0,3-3V146.769A3.007,3.007,0,0,0,160.629,143.77Zm-20.092-4.8a9.193,9.193,0,0,1,8.4-9.3,9.066,9.066,0,0,1,9.7,9,.944.944,0,0,1-1,1h-.2a.86.86,0,0,1-.8-.8,7.047,7.047,0,0,0-6.1-7.1,7.048,7.048,0,0,0-7.9,7v5h-2.1v-4.8Zm21.091,21.791a1,1,0,0,1-1,1H138.638a1,1,0,0,1-1-1V146.769a1,1,0,0,1,1-1h21.991a1,1,0,0,1,1,1v13.994Z" transform="translate(-121.61 -112.758)" fill="#2e3e91"/>
        <path id="Caminho_33706" data-name="Caminho 33706" d="M227.871,299.18a3.969,3.969,0,0,0-5.6,5.6v3.4a2.005,2.005,0,0,0,2,2h2a2.005,2.005,0,0,0,2-2v-3.4a4,4,0,0,0,1-2.6A3.893,3.893,0,0,0,227.871,299.18Zm-1.4,4.5a.778.778,0,0,0-.3.7v3.8h-2v-3.9a1.079,1.079,0,0,0-.3-.7,1.928,1.928,0,0,1-.6-1.8,1.909,1.909,0,0,1,1.6-1.6h.4a1.655,1.655,0,0,1,1.2.5,1.956,1.956,0,0,1,0,3Z" transform="translate(-197.249 -263.17)" fill="#2e3e91"/>
      </g>
    </g>
  </g>
</svg>
