<svg xmlns="http://www.w3.org/2000/svg" width="56" height="60" viewBox="0 0 56 60">
  <g id="house-5" transform="translate(-9.875 -58)">
    <g id="Grupo_11218" data-name="Grupo 11218" transform="translate(9.875 58)">
      <path id="Caminho_33691" data-name="Caminho 33691" d="M71.141,21.116,48.17.724a6.21,6.21,0,0,0-8.589,0l-7.69,7v-2.7h1a.944.944,0,0,0,1-1v-4a.944.944,0,0,0-1-1H20.9a.944.944,0,0,0-1,1v4a.944.944,0,0,0,1,1h1v11.5l-5.293,4.6a2.4,2.4,0,0,0-.6,2.5,2.311,2.311,0,0,0,2.1,1.4h3.8V53h-1a.944.944,0,0,0-1,1v4a.944.944,0,0,0,1,1H66.846a.974.974,0,0,0,1-1.1v-4a.944.944,0,0,0-1-1h-1V24.914h3.8a2.077,2.077,0,0,0,2.1-1.4A2.194,2.194,0,0,0,71.141,21.116Zm-1.3,1.8a.309.309,0,0,1-.2.1H64.849a.944.944,0,0,0-1,1V54a.944.944,0,0,0,1,1h1v2H21.9V55h1a.944.944,0,0,0,1-1V24.014a.944.944,0,0,0-1-1H18.107c-.1,0-.1,0-.2-.1a.367.367,0,0,1,.1-.3l5.593-4.8a1.136,1.136,0,0,0,.3-.8V4.023a.944.944,0,0,0-1-1h-1v-2H31.89v2h-1a.944.944,0,0,0-1,1v6a1.382,1.382,0,0,0,.6,1.1,1.088,1.088,0,0,0,1.1-.2l9.388-8.6a4.1,4.1,0,0,1,5.793,0L69.743,22.715C69.843,22.715,69.942,22.815,69.843,22.915Z" transform="translate(-15.875 1)" fill="#69a4d9"/>
      <path id="Caminho_33692" data-name="Caminho 33692" d="M169.23,195.48a8,8,0,1,0,7.99,8A8.017,8.017,0,0,0,169.23,195.48Zm0,13.994a6,6,0,1,1,5.993-6A6.013,6.013,0,0,1,169.23,209.474Z" transform="translate(-144.226 -172.465)" fill="#2e3e91"/>
      <path id="Caminho_33693" data-name="Caminho 33693" d="M148.98,180.039a11.564,11.564,0,0,0,2.1-6.7,11.985,11.985,0,1,0-11.985,12,12.261,12.261,0,0,0,5.393-1.3l10.487,10.4a.906.906,0,0,0,.7.3,1.078,1.078,0,0,0,.7-.3l2.8-2.8a.967.967,0,0,0,0-1.4Zm6.692,12.295-10.287-10.3a.906.906,0,0,0-.7-.3c-.2,0-.3.1-.5.2a10.259,10.259,0,1,1,2.7-2.4.942.942,0,0,0,.1,1.3l10.087,10.1Z" transform="translate(-114.088 -142.33)" fill="#2e3e91"/>
    </g>
  </g>
</svg>
