<svg xmlns="http://www.w3.org/2000/svg" width="14" height="20" viewBox="0 0 14 20">
  <g id="Lock_Alt_2_Lock" data-name="Lock Alt 2 Lock" transform="translate(-4)">
    <g id="lock-alt-2-lock" transform="translate(4 0)">
      <path id="Path" d="M9.625,10.092a.855.855,0,0,1-.875-.833V5a3.42,3.42,0,0,0-3.5-3.333A3.42,3.42,0,0,0,1.75,5V9.25a.855.855,0,0,1-.875.833A.855.855,0,0,1,0,9.25V5A5.13,5.13,0,0,1,5.25,0,5.13,5.13,0,0,1,10.5,5V9.258A.855.855,0,0,1,9.625,10.092Z" transform="translate(1.75 0)" fill="#2e3e91"/>
      <path id="Path-2" data-name="Path" d="M.875,3.333A.855.855,0,0,1,0,2.5V.833A.855.855,0,0,1,.875,0,.855.855,0,0,1,1.75.833V2.5A.855.855,0,0,1,.875,3.333Z" transform="translate(6.125 12.5)" fill="#2e3e91"/>
      <path id="Shape" d="M7,13.333A6.847,6.847,0,0,1,0,6.667,6.847,6.847,0,0,1,7,0a6.847,6.847,0,0,1,7,6.667,6.467,6.467,0,0,1-2.051,4.714A7.134,7.134,0,0,1,7,13.333ZM7,1.666a5.136,5.136,0,0,0-5.25,5,5.136,5.136,0,0,0,5.25,5,5.136,5.136,0,0,0,5.25-5A5.136,5.136,0,0,0,7,1.666Z" transform="translate(0 6.667)" fill="#2e3e91"/>
    </g>
  </g>
</svg>
