<svg xmlns="http://www.w3.org/2000/svg" width="56" height="59.95" viewBox="0 0 56 59.95">
  <g id="mortgage-4" transform="translate(-15.875 1)">
    <g id="Grupo_11224" data-name="Grupo 11224" transform="translate(15.875 -1)">
      <g id="Grupo_11223" data-name="Grupo 11223" transform="translate(0)">
        <path id="Caminho_33700" data-name="Caminho 33700" d="M71.141,21.1,48.17.723a6.214,6.214,0,0,0-8.589,0L31.89,7.714v-2.7h1a.944.944,0,0,0,1-1V.024a.944.944,0,0,0-1-1H20.9a.944.944,0,0,0-1,1V4.019a.944.944,0,0,0,1,1h1V16.5L16.609,21.1a2.394,2.394,0,0,0-.6,2.5,2.311,2.311,0,0,0,2.1,1.4h3.8V52.957h-1a.944.944,0,0,0-1,1v3.995a.944.944,0,0,0,1,1H66.846a.974.974,0,0,0,1-1.1V53.856a.944.944,0,0,0-1-1h-1V24.892h3.8a2.077,2.077,0,0,0,2.1-1.4A2.191,2.191,0,0,0,71.141,21.1Zm-1.3,1.8a.309.309,0,0,1-.2.1H64.849a.944.944,0,0,0-1,1V53.956a.944.944,0,0,0,1,1h1v2H21.9v-2h1a.944.944,0,0,0,1-1V23.994a.944.944,0,0,0-1-1H18.107c-.1,0-.1,0-.2-.1a.367.367,0,0,1,.1-.3L23.6,17.8a1.134,1.134,0,0,0,.3-.8V4.019a.944.944,0,0,0-1-1h-1v-2H31.89v2h-1a.944.944,0,0,0-1,1v5.993a1.38,1.38,0,0,0,.6,1.1,1.088,1.088,0,0,0,1.1-.2l9.388-8.589a4.1,4.1,0,0,1,5.793,0L69.743,22.7C69.843,22.7,69.942,22.8,69.843,22.895Z" transform="translate(-15.875 1)" fill="#69a4d9"/>
        <path id="Caminho_33701" data-name="Caminho 33701" d="M162.572,196.379a3.014,3.014,0,0,0-4.295,0L137.1,217.453a3.21,3.21,0,0,0,0,4.295,2.9,2.9,0,0,0,4.195,0l21.273-21.074A3.21,3.21,0,0,0,162.572,196.379Zm-1.5,2.9L139.9,220.349a.966.966,0,0,1-1.4,0,1.086,1.086,0,0,1,0-1.5l21.174-21.074a.966.966,0,0,1,1.4,0A1.086,1.086,0,0,1,161.074,199.275Z" transform="translate(-122.187 -172.484)" fill="#2e3e91"/>
        <path id="Caminho_33702" data-name="Caminho 33702" d="M140.634,205.467a4.994,4.994,0,1,0-4.994-4.994A4.945,4.945,0,0,0,140.634,205.467Zm0-7.99a3,3,0,1,1-3,3A2.943,2.943,0,0,1,140.634,197.478Z" transform="translate(-121.623 -172.484)" fill="#2e3e91"/>
        <path id="Caminho_33703" data-name="Caminho 33703" d="M294.234,349.08a4.994,4.994,0,1,0,4.994,4.994A4.945,4.945,0,0,0,294.234,349.08Zm0,7.99a3,3,0,1,1,3-3A2.943,2.943,0,0,1,294.234,357.07Z" transform="translate(-257.245 -308.106)" fill="#2e3e91"/>
      </g>
    </g>
  </g>
</svg>
