<svg id="information" xmlns="http://www.w3.org/2000/svg" width="46" height="60" viewBox="0 0 46 60">
  <g id="Grupo_4109" data-name="Grupo 4109" transform="translate(0 0)">
    <g id="Grupo_4108" data-name="Grupo 4108">
      <path id="Caminho_2463" data-name="Caminho 2463" d="M90.733-1h-18a14.041,14.041,0,0,0-14,14V31a14.041,14.041,0,0,0,14,14h3.3a1.752,1.752,0,0,1,1.7,1.7v9.9a2.37,2.37,0,0,0,1.7,2.3,1.7,1.7,0,0,0,.7.1,2.61,2.61,0,0,0,2-1l6.1-8.7a12.731,12.731,0,0,1,6.8-5,13.956,13.956,0,0,0,9.7-13.3V13A14.041,14.041,0,0,0,90.733-1Zm12,32.1a11.914,11.914,0,0,1-8.3,11.4,15.5,15.5,0,0,0-7.8,5.7l-6.2,8.7c-.1.2-.3.1-.4.1-.1-.1-.3-.1-.3-.4V46.7a3.757,3.757,0,0,0-3.7-3.7h-3.3a12.035,12.035,0,0,1-12-12V13a12.035,12.035,0,0,1,12-12h18a12.035,12.035,0,0,1,12,12Z" transform="translate(-58.733 1)" fill="#69a4d9"/>
      <path id="Caminho_2464" data-name="Caminho 2464" d="M214.8,153.533h-1v-15a2.946,2.946,0,0,0-3-3h-4a3,3,0,0,0,0,6h1v12h-1a3,3,0,0,0,0,6h8a3,3,0,1,0,0-6Zm0,4h-8a1,1,0,0,1,0-2h2a.945.945,0,0,0,1-1v-14a.945.945,0,0,0-1-1h-2a1,1,0,0,1,0-2h4a1,1,0,0,1,1,1v16a.945.945,0,0,0,1,1h2a1,1,0,0,1,0,2Z" transform="translate(-186.8 -119.533)" fill="#69a4d9"/>
      <path id="Caminho_2465" data-name="Caminho 2465" d="M224.867,58.2a4,4,0,1,0-4-4A4.012,4.012,0,0,0,224.867,58.2Zm0-6a2,2,0,1,1-2,2A2.006,2.006,0,0,1,224.867,52.2Z" transform="translate(-201.867 -44.201)" fill="#69a4d9"/>
    </g>
  </g>
</svg>
