<svg id="mortgage-4" xmlns="http://www.w3.org/2000/svg" width="56.047" height="60" viewBox="0 0 56.047 60">
  <g id="Grupo_755" data-name="Grupo 755" transform="translate(0 0)">
    <g id="Grupo_754" data-name="Grupo 754">
      <path id="Caminho_1694" data-name="Caminho 1694" d="M71.187,21.116,48.2.724a6.219,6.219,0,0,0-8.6,0l-7.7,7v-2.7h1a.944.944,0,0,0,1-1v-4a.944.944,0,0,0-1-1H20.908a.944.944,0,0,0-1,1v4a.944.944,0,0,0,1,1h1v11.5l-5.3,4.6a2.4,2.4,0,0,0-.6,2.5,2.313,2.313,0,0,0,2.1,1.4h3.8V53h-1a.944.944,0,0,0-1,1v4a.944.944,0,0,0,1,1H66.889a.975.975,0,0,0,1-1.1v-4a.944.944,0,0,0-1-1h-1V24.914h3.8a2.079,2.079,0,0,0,2.1-1.4A2.192,2.192,0,0,0,71.187,21.116Zm-1.3,1.8a.31.31,0,0,1-.2.1h-4.8a.944.944,0,0,0-1,1V54a.944.944,0,0,0,1,1h1v2H21.907V55h1a.944.944,0,0,0,1-1V24.014a.944.944,0,0,0-1-1h-4.8c-.1,0-.1,0-.2-.1a.367.367,0,0,1,.1-.3l5.6-4.8a1.135,1.135,0,0,0,.3-.8V4.023a.944.944,0,0,0-1-1h-1v-2h10v2h-1a.944.944,0,0,0-1,1v6a1.381,1.381,0,0,0,.6,1.1,1.089,1.089,0,0,0,1.1-.2l9.4-8.6a4.1,4.1,0,0,1,5.8,0l22.99,20.391C69.887,22.715,69.987,22.815,69.887,22.915Z" transform="translate(-15.875 1)" fill="#69a4d9"/>
      <path id="Caminho_1695" data-name="Caminho 1695" d="M162.594,196.38a3.016,3.016,0,0,0-4.3,0L137.1,217.471a3.213,3.213,0,0,0,0,4.3,2.9,2.9,0,0,0,4.2,0l21.291-21.091A3.213,3.213,0,0,0,162.594,196.38Zm-1.5,2.9L139.9,220.37a.966.966,0,0,1-1.4,0,1.087,1.087,0,0,1,0-1.5l21.191-21.091a.966.966,0,0,1,1.4,0A1.087,1.087,0,0,1,161.094,199.278Z" transform="translate(-122.176 -172.465)" fill="#69a4d9"/>
      <path id="Caminho_1696" data-name="Caminho 1696" d="M140.638,205.476a5,5,0,1,0-5-5A4.949,4.949,0,0,0,140.638,205.476Zm0-8a3,3,0,1,1-3,3A2.945,2.945,0,0,1,140.638,197.479Z" transform="translate(-121.611 -172.465)" fill="#69a4d9"/>
      <path id="Caminho_1697" data-name="Caminho 1697" d="M294.238,349.08a5,5,0,1,0,5,5A4.949,4.949,0,0,0,294.238,349.08Zm0,8a3,3,0,1,1,3-3A2.945,2.945,0,0,1,294.238,357.077Z" transform="translate(-257.218 -308.072)" fill="#69a4d9"/>
    </g>
  </g>
</svg>
