<svg id="Edit_Alt_2" data-name="Edit / Alt 2" xmlns="http://www.w3.org/2000/svg" width="14.999" height="15" viewBox="0 0 14.999 15">
  <g id="edit-alt-2" transform="translate(0 0)">
    <path id="Shape" d="M3.129,15H.625A.626.626,0,0,1,0,14.375v-2.5a.629.629,0,0,1,.181-.444L10.911.7A2.4,2.4,0,0,1,14.3,4.089L3.568,14.819A.627.627,0,0,1,3.129,15ZM12.6,1.252a1.118,1.118,0,0,0-.8.337L1.25,12.132V13.75H2.868L13.411,3.2a1.137,1.137,0,0,0-.8-1.95H12.6Z" transform="translate(0 0)" fill="#e1b57c"/>
    <path id="Path" d="M2.815,3.44a.625.625,0,0,1-.444-.181L.184,1.071A.627.627,0,0,1,1.071.184L3.258,2.371A.625.625,0,0,1,2.815,3.44Z" transform="translate(9.997 1.874)" fill="#e1b57c"/>
  </g>
</svg>
