<svg id="help-alt-3" xmlns="http://www.w3.org/2000/svg" width="15" height="17" viewBox="0 0 15 17">
  <ellipse id="Oval" cx="0.75" cy="0.709" rx="0.75" ry="0.709" transform="translate(6.75 10.622)" fill="#e1b57c"/>
  <path id="Path" d="M3,7.089a.73.73,0,0,1-.75-.709V4.963A.73.73,0,0,1,3,4.254,1.46,1.46,0,0,0,4.5,2.837,1.46,1.46,0,0,0,3,1.42,1.46,1.46,0,0,0,1.5,2.837a.73.73,0,0,1-.75.709A.73.73,0,0,1,0,2.837,2.9,2.9,0,0,1,2.746.01,2.973,2.973,0,0,1,5.958,2.359,2.838,2.838,0,0,1,3.75,5.58v.8A.73.73,0,0,1,3,7.089Z" transform="translate(4.5 2.824)" fill="#e1b57c"/>
  <path id="Shape" d="M7.5,17h0a.764.764,0,0,1-.651-.355L5.13,13.811a7.446,7.446,0,0,1-4.046-3.054A6.77,6.77,0,0,1,.1,5.953,7.01,7.01,0,0,1,2.64,1.69a7.836,7.836,0,0,1,9.721,0A7.007,7.007,0,0,1,14.9,5.953a6.77,6.77,0,0,1-.987,4.8A7.445,7.445,0,0,1,9.87,13.811L8.153,16.645A.762.762,0,0,1,7.5,17ZM7.53,1.408H7.5a6.209,6.209,0,0,0-3.921,1.4,5.591,5.591,0,0,0-2,3.481,5.422,5.422,0,0,0,.9,3.867,5.984,5.984,0,0,0,3.36,2.367.737.737,0,0,1,.442.333L7.5,14.874l1.215-2.006a.74.74,0,0,1,.443-.333,5.986,5.986,0,0,0,3.4-2.359,5.42,5.42,0,0,0,.917-3.889A5.589,5.589,0,0,0,11.465,2.8,6.209,6.209,0,0,0,7.53,1.408Z" transform="translate(0)" fill="#e1b57c"/>
</svg>
