<svg id="mentions" xmlns="http://www.w3.org/2000/svg" width="15" height="15" viewBox="0 0 15 15">
  <path id="Shape" d="M14.347,15H8.478a8.753,8.753,0,0,1-3.244-.619A8.471,8.471,0,0,1,2.483,12.62,8.072,8.072,0,0,1,.645,9.984,7.793,7.793,0,0,1,0,6.875,6.689,6.689,0,0,1,2.1,2.014,7.287,7.287,0,0,1,7.174,0a7.287,7.287,0,0,1,5.073,2.014,6.689,6.689,0,0,1,2.1,4.861V9.687a2.168,2.168,0,0,1-1.017,1.963,2.351,2.351,0,0,1-1.266.366,2.381,2.381,0,0,1-1.017-.229A2.2,2.2,0,0,1,9.783,9.962a3.374,3.374,0,0,1-1.957.663H7.174a3.838,3.838,0,0,1-3.913-3.75,3.838,3.838,0,0,1,3.913-3.75h.671a3.32,3.32,0,0,1,1.938.625.653.653,0,0,1,1.3,0V9.687a.979.979,0,0,0,1.956,0V6.875A5.758,5.758,0,0,0,7.174,1.25,5.758,5.758,0,0,0,1.3,6.875a6.689,6.689,0,0,0,2.1,4.861A7.287,7.287,0,0,0,8.478,13.75h5.869a.626.626,0,1,1,0,1.25ZM7.174,4.375a2.559,2.559,0,0,0-2.608,2.5,2.559,2.559,0,0,0,2.608,2.5h.652A1.92,1.92,0,0,0,9.783,7.5V6.25A1.919,1.919,0,0,0,7.826,4.375Z" transform="translate(0)" fill="#e1b57c"/>
</svg>
