<svg xmlns="http://www.w3.org/2000/svg" width="15.25" height="13.752" viewBox="0 0 15.25 13.752">
  <g id="Upload" transform="translate(0.125 -0.878)">
    <g id="upload-2" data-name="upload" transform="translate(0 1.005)">
      <path id="Path" d="M4.821,2.016,2.946.175A.627.627,0,0,0,2.74.046a.636.636,0,0,0-.475,0,.627.627,0,0,0-.206.129L.184,2.016a.608.608,0,0,0,0,.872.636.636,0,0,0,.888,0l.806-.8V9.817a.625.625,0,0,0,1.25,0V2.09l.806.8a.633.633,0,0,0,.888,0,.606.606,0,0,0,0-.872Z" transform="translate(4.997 0)" fill="#2e3e91" stroke="#2e3e91" stroke-width="0.25"/>
      <path id="Path-2" data-name="Path" d="M13.125,6.138H1.875A1.858,1.858,0,0,1,0,4.3V.614A.619.619,0,0,1,.625,0,.619.619,0,0,1,1.25.614V4.3a.619.619,0,0,0,.625.614h11.25A.619.619,0,0,0,13.75,4.3V.614a.625.625,0,0,1,1.25,0V4.3A1.858,1.858,0,0,1,13.125,6.138Z" transform="translate(0 7.362)" fill="#2e3e91" stroke="#2e3e91" stroke-width="0.25"/>
    </g>
  </g>
</svg>
