<svg xmlns="http://www.w3.org/2000/svg" width="15" height="16.295" viewBox="0 0 15 16.295">
  <g id="Download_Alt_2" data-name="Download / Alt 2" transform="translate(0 -0.092)">
    <g id="download-alt-2" transform="translate(0 0.092)">
      <path id="Shape" d="M12.95,16.295H2.045A2.047,2.047,0,0,1,0,14.25V1.982A2.036,2.036,0,0,1,2.043.006h8.971a.709.709,0,0,1,.177,0h.061a.793.793,0,0,1,.2.129l3.408,3.408a.794.794,0,0,1,.129.2.2.2,0,0,1,0,.061.716.716,0,0,1,0,.177V14.25A2.047,2.047,0,0,1,12.95,16.295ZM2.045,1.3a.682.682,0,0,0-.682.682V14.25a.682.682,0,0,0,.682.682H12.95a.682.682,0,0,0,.682-.682V4.708H12.268a2.047,2.047,0,0,1-2.045-2.045V1.3Zm9.542.961v.4a.682.682,0,0,0,.682.682h.4Z" transform="translate(0 0)" fill="#e1b57c"/>
      <path id="Path" d="M4.29,6.332l-.879.886V.682a.682.682,0,0,0-1.363,0V7.218l-.879-.886A.684.684,0,1,0,.2,7.3L2.245,9.344a.682.682,0,0,0,.225.143.641.641,0,0,0,.518,0,.682.682,0,0,0,.225-.143L5.258,7.3a.684.684,0,0,0-.968-.968Z" transform="translate(4.768 3.345)" fill="#e1b57c"/>
    </g>
  </g>
</svg>
